<svg xmlns="http://www.w3.org/2000/svg" xmlns:xlink="http://www.w3.org/1999/xlink" version="1.1" x="0px" y="0px" viewBox="0 0 32 40" enable-background="new 0 0 32 32" xml:space="preserve"><g><path d="M5.07,5.959c0.024-0.166,0.058-0.328,0.1-0.49C4.271,5.137,3.277,5.211,2.452,5.727C2.336,5.801,2.3,5.955,2.373,6.073   C2.42,6.146,2.502,6.189,2.585,6.189c0.045,0,0.091-0.014,0.133-0.039C3.432,5.705,4.298,5.645,5.07,5.959z"/><path d="M3.024,8.48c0.046,0.082,0.13,0.127,0.217,0.127c0.042,0,0.084-0.01,0.124-0.03C3.937,8.253,4.55,8.021,5.184,7.864   c-0.044-0.16-0.089-0.32-0.114-0.486C4.388,7.545,3.73,7.793,3.117,8.141C2.997,8.209,2.955,8.362,3.024,8.48z"/><path d="M8.859,11.207c-0.165-0.029-0.318-0.082-0.477-0.125L5.315,11.09c-0.658,0.002-1.269,0.387-1.555,0.979l-0.976,2.02   c-0.061,0.123-0.008,0.273,0.116,0.332c0.035,0.018,0.071,0.025,0.108,0.025c0.094,0,0.183-0.052,0.226-0.142l0.976-2.02   c0.204-0.42,0.638-0.693,1.106-0.695l4.771-0.014C9.694,11.414,9.287,11.28,8.859,11.207z"/><path d="M15.488,25.23c-0.195-0.258-0.28-0.576-0.239-0.896l0.544-4.315c-0.153-0.164-0.299-0.334-0.438-0.51l-0.602,4.764   c-0.058,0.449,0.063,0.897,0.337,1.261l2.656,3.512c0.049,0.066,0.124,0.1,0.199,0.1c0.053,0,0.104-0.016,0.15-0.051   c0.11-0.082,0.133-0.24,0.049-0.35L15.488,25.23z"/><path d="M13.283,14.707l-4.107,0.276c-0.82,0.058-1.495,0.69-1.601,1.507l-0.628,4.83c-0.019,0.137,0.079,0.264,0.216,0.281   c0.011,0,0.021,0.002,0.033,0.002c0.124,0,0.23-0.092,0.248-0.219l0.628-4.83c0.076-0.582,0.555-1.031,1.139-1.072l4.264-0.286   C13.419,15.028,13.353,14.868,13.283,14.707z"/><path d="M19.635,25.303c-0.416-0.221-0.666-0.652-0.65-1.123l0.061-1.984c-0.166-0.063-0.332-0.133-0.494-0.205l-0.065,2.174   c-0.021,0.662,0.33,1.269,0.915,1.58l6.966,3.728c0.037,0.021,0.078,0.028,0.118,0.028c0.089,0,0.175-0.049,0.22-0.133   c0.065-0.121,0.021-0.272-0.103-0.338L19.635,25.303z"/></g><circle cx="10.21" cy="6.359" r="0.866"/><path d="M28.027,10.791C23.389,5.521,16.701,2.5,9.679,2.5C7.348,2.506,5.497,4.366,5.502,6.645c0.004,2.021,1.451,3.73,3.441,4.07  c2.605,0.443,4.703,2.484,5.217,5.078c0.738,3.729,4.028,6.434,7.822,6.434c0.52,0,1.044-0.053,1.559-0.154  c1.855-0.367,3.525-1.387,4.701-2.867C30.217,16.715,30.127,13.176,28.027,10.791z M10.21,7.725c-0.753,0-1.366-0.612-1.366-1.365  c0-0.754,0.613-1.366,1.366-1.366s1.365,0.612,1.365,1.366C11.575,7.112,10.963,7.725,10.21,7.725z M17.168,8.561  c-0.044,0.033-0.097,0.049-0.148,0.049c-0.076,0-0.152-0.034-0.201-0.1c-0.083-0.111-0.06-0.268,0.052-0.35l2.882-2.142  c0.107-0.086,0.266-0.061,0.35,0.052c0.082,0.11,0.059,0.268-0.053,0.35L17.168,8.561z M20.522,11.655  c-0.044,0.032-0.097,0.049-0.149,0.049c-0.076,0-0.152-0.035-0.201-0.101c-0.082-0.11-0.059-0.268,0.053-0.35l3.436-2.553  c0.109-0.086,0.268-0.062,0.35,0.051c0.084,0.111,0.06,0.268-0.051,0.35L20.522,11.655z M27.106,12.023l-3.991,2.966  c-0.044,0.032-0.098,0.049-0.148,0.049c-0.076,0-0.152-0.035-0.201-0.103c-0.084-0.11-0.06-0.268,0.052-0.35l3.991-2.965  c0.109-0.084,0.267-0.06,0.35,0.051C27.24,11.784,27.217,11.939,27.106,12.023z"/><text x="0" y="47" fill="#000000" font-size="5px" font-weight="bold" font-family="'Helvetica Neue', Helvetica, Arial-Unicode, Arial, Sans-serif">Created by Pham Duy Phuong Hung</text><text x="0" y="52" fill="#000000" font-size="5px" font-weight="bold" font-family="'Helvetica Neue', Helvetica, Arial-Unicode, Arial, Sans-serif">from the Noun Project</text></svg>